<svg width="84" height="47" viewBox="0 0 84 47" fill="none" xmlns="http://www.w3.org/2000/svg">
<path d="M30 9L42 1L54 9" stroke="#F7F9FF" stroke-width="2" stroke-linecap="round" stroke-linejoin="round"/>
<path d="M3.048 38.12C2.76 38.12 2.528 38.032 2.352 37.856C2.176 37.664 2.088 37.416 2.088 37.112V21.944C2.088 21.64 2.176 21.4 2.352 21.224C2.528 21.048 2.76 20.96 3.048 20.96C3.352 20.96 3.592 21.048 3.768 21.224C3.944 21.4 4.032 21.64 4.032 21.944V28.568H6.792L12.6 21.344C12.792 21.088 13.04 20.96 13.344 20.96C13.584 20.96 13.792 21.048 13.968 21.224C14.144 21.384 14.232 21.584 14.232 21.824C14.232 22.032 14.144 22.248 13.968 22.472L8.784 28.904C9.616 29.128 10.272 29.496 10.752 30.008C11.248 30.504 11.816 31.328 12.456 32.48L14.808 36.656C14.904 36.848 14.952 37.024 14.952 37.184C14.952 37.456 14.856 37.68 14.664 37.856C14.488 38.032 14.272 38.12 14.016 38.12C13.664 38.12 13.384 37.936 13.176 37.568L10.536 32.888C9.992 31.912 9.448 31.232 8.904 30.848C8.36 30.448 7.624 30.248 6.696 30.248H4.032V37.112C4.032 37.416 3.944 37.664 3.768 37.856C3.592 38.032 3.352 38.12 3.048 38.12ZM22.1619 26.024C25.0899 26.024 26.5539 27.56 26.5539 30.632V37.16C26.5539 37.448 26.4659 37.68 26.2899 37.856C26.1299 38.032 25.9059 38.12 25.6179 38.12C25.3299 38.12 25.0979 38.032 24.9219 37.856C24.7459 37.68 24.6579 37.448 24.6579 37.16V36.008C24.3539 36.696 23.8899 37.232 23.2659 37.616C22.6419 37.984 21.9219 38.168 21.1059 38.168C20.3539 38.168 19.6579 38.016 19.0179 37.712C18.3939 37.408 17.8979 36.984 17.5299 36.44C17.1619 35.896 16.9779 35.296 16.9779 34.64C16.9779 33.76 17.2019 33.08 17.6499 32.6C18.0979 32.104 18.8339 31.752 19.8579 31.544C20.8819 31.32 22.3059 31.208 24.1299 31.208H24.6579V30.416C24.6579 29.456 24.4579 28.752 24.0579 28.304C23.6739 27.856 23.0419 27.632 22.1619 27.632C21.0739 27.632 19.9699 27.928 18.8499 28.52C18.4179 28.792 18.1139 28.928 17.9379 28.928C17.7459 28.928 17.5859 28.856 17.4579 28.712C17.3299 28.568 17.2659 28.384 17.2659 28.16C17.2659 27.936 17.3299 27.744 17.4579 27.584C17.6019 27.408 17.8259 27.232 18.1299 27.056C18.6899 26.736 19.3219 26.488 20.0259 26.312C20.7459 26.12 21.4579 26.024 22.1619 26.024ZM21.3699 36.632C22.3299 36.632 23.1139 36.312 23.7219 35.672C24.3459 35.016 24.6579 34.176 24.6579 33.152V32.456H24.2259C22.8179 32.456 21.7459 32.52 21.0099 32.648C20.2739 32.76 19.7459 32.96 19.4259 33.248C19.1219 33.52 18.9699 33.928 18.9699 34.472C18.9699 35.096 19.1939 35.616 19.6419 36.032C20.1059 36.432 20.6819 36.632 21.3699 36.632ZM31.0485 38.12C30.7445 38.12 30.5045 38.04 30.3285 37.88C30.1525 37.704 30.0645 37.472 30.0645 37.184V27.032C30.0645 26.744 30.1525 26.512 30.3285 26.336C30.5045 26.16 30.7445 26.072 31.0485 26.072C31.3365 26.072 31.5685 26.16 31.7445 26.336C31.9205 26.512 32.0085 26.744 32.0085 27.032V31.208H38.2965V27.032C38.2965 26.744 38.3845 26.512 38.5605 26.336C38.7525 26.16 38.9925 26.072 39.2805 26.072C39.5685 26.072 39.8005 26.16 39.9765 26.336C40.1525 26.512 40.2405 26.744 40.2405 27.032L40.2645 37.136C40.2645 37.44 40.1765 37.68 40.0005 37.856C39.8245 38.032 39.5845 38.12 39.2805 38.12C38.9925 38.12 38.7525 38.032 38.5605 37.856C38.3845 37.68 38.2965 37.44 38.2965 37.136V32.768H32.0085V37.184C32.0085 37.472 31.9205 37.704 31.7445 37.88C31.5685 38.04 31.3365 38.12 31.0485 38.12ZM48.5994 26.024C51.5274 26.024 52.9914 27.56 52.9914 30.632V37.16C52.9914 37.448 52.9034 37.68 52.7274 37.856C52.5674 38.032 52.3434 38.12 52.0554 38.12C51.7674 38.12 51.5354 38.032 51.3594 37.856C51.1834 37.68 51.0954 37.448 51.0954 37.16V36.008C50.7914 36.696 50.3274 37.232 49.7034 37.616C49.0794 37.984 48.3594 38.168 47.5434 38.168C46.7914 38.168 46.0954 38.016 45.4554 37.712C44.8314 37.408 44.3354 36.984 43.9674 36.44C43.5994 35.896 43.4154 35.296 43.4154 34.64C43.4154 33.76 43.6394 33.08 44.0874 32.6C44.5354 32.104 45.2714 31.752 46.2954 31.544C47.3194 31.32 48.7434 31.208 50.5674 31.208H51.0954V30.416C51.0954 29.456 50.8954 28.752 50.4954 28.304C50.1114 27.856 49.4794 27.632 48.5994 27.632C47.5114 27.632 46.4074 27.928 45.2874 28.52C44.8554 28.792 44.5514 28.928 44.3754 28.928C44.1834 28.928 44.0234 28.856 43.8954 28.712C43.7674 28.568 43.7034 28.384 43.7034 28.16C43.7034 27.936 43.7674 27.744 43.8954 27.584C44.0394 27.408 44.2634 27.232 44.5674 27.056C45.1274 26.736 45.7594 26.488 46.4634 26.312C47.1834 26.12 47.8954 26.024 48.5994 26.024ZM47.8074 36.632C48.7674 36.632 49.5514 36.312 50.1594 35.672C50.7834 35.016 51.0954 34.176 51.0954 33.152V32.456H50.6634C49.2554 32.456 48.1834 32.52 47.4474 32.648C46.7114 32.76 46.1834 32.96 45.8634 33.248C45.5594 33.52 45.4074 33.928 45.4074 34.472C45.4074 35.096 45.6314 35.616 46.0794 36.032C46.5434 36.432 47.1194 36.632 47.8074 36.632ZM59.766 29.24C59.766 31.752 59.502 33.688 58.974 35.048C58.462 36.408 57.614 37.416 56.43 38.072C56.318 38.12 56.182 38.144 56.022 38.144C55.782 38.144 55.582 38.072 55.422 37.928C55.278 37.784 55.206 37.6 55.206 37.376C55.206 37.216 55.246 37.064 55.326 36.92C55.406 36.776 55.526 36.664 55.686 36.584C56.262 36.248 56.71 35.8 57.03 35.24C57.366 34.68 57.598 33.936 57.726 33.008C57.87 32.064 57.942 30.816 57.942 29.264V27.32C57.942 27 58.03 26.752 58.206 26.576C58.382 26.4 58.622 26.312 58.926 26.312H65.286C65.59 26.312 65.83 26.4 66.006 26.576C66.198 26.752 66.294 26.992 66.294 27.296V37.184C66.294 37.456 66.198 37.68 66.006 37.856C65.83 38.032 65.598 38.12 65.31 38.12C65.022 38.12 64.79 38.032 64.614 37.856C64.438 37.68 64.35 37.456 64.35 37.184V27.848H59.766V29.24ZM70.7991 38C70.4951 38 70.2471 37.912 70.0551 37.736C69.8791 37.56 69.7911 37.328 69.7911 37.04V27.032C69.7911 26.744 69.8791 26.512 70.0551 26.336C70.2311 26.16 70.4711 26.072 70.7751 26.072C71.0631 26.072 71.2951 26.16 71.4711 26.336C71.6471 26.512 71.7351 26.744 71.7351 27.032V30.488H73.5111C76.4871 30.488 77.9751 31.704 77.9751 34.136C77.9751 35 77.7591 35.728 77.3271 36.32C76.8951 36.896 76.3271 37.32 75.6231 37.592C74.9351 37.864 74.2071 38 73.4391 38H70.7991ZM80.8071 38.12C80.5191 38.12 80.2871 38.04 80.1111 37.88C79.9351 37.704 79.8471 37.472 79.8471 37.184V27.032C79.8471 26.744 79.9351 26.512 80.1111 26.336C80.2871 26.16 80.5191 26.072 80.8071 26.072C81.1111 26.072 81.3511 26.16 81.5271 26.336C81.7031 26.512 81.7911 26.744 81.7911 27.032V37.184C81.7911 37.472 81.7031 37.704 81.5271 37.88C81.3511 38.04 81.1111 38.12 80.8071 38.12ZM73.1271 36.536C73.8951 36.536 74.5671 36.352 75.1431 35.984C75.7351 35.616 76.0311 35.008 76.0311 34.16C76.0311 33.296 75.7671 32.712 75.2391 32.408C74.7271 32.104 74.0231 31.952 73.1271 31.952H71.7111V36.536H73.1271Z" fill="#F7F9FF"/>
</svg>
